HIERARCHY
ROOT Hips
{
  OFFSET -102.467 93.6631 130.069
  CHANNELS 6 Xposition Yposition Zposition Zrotation Xrotation Yrotation
  JOINT LeftUpLeg
  {
    OFFSET 8.64259 1.95398 -2.38835
    CHANNELS 3 Zrotation Xrotation Yrotation
    JOINT LeftLeg
    {
      OFFSET 43.7702 0 0
      CHANNELS 3 Zrotation Xrotation Yrotation
      JOINT LeftFoot
      {
        OFFSET 40.6238 0 0
        CHANNELS 3 Zrotation Xrotation Yrotation
        JOINT LeftToeBase
        {
          OFFSET 12.7242 0 0
          CHANNELS 3 Zrotation Xrotation Yrotation
          End Site
          {
            OFFSET 0 0 0
          }
        }
      }
    }
  }
  JOINT RightUpLeg
  {
    OFFSET -8.2249 1.95398 -2.59336
    CHANNELS 3 Zrotation Xrotation Yrotation
    JOINT RightLeg
    {
      OFFSET 43.5653 0 0
      CHANNELS 3 Zrotation Xrotation Yrotation
      JOINT RightFoot
      {
        OFFSET 40.6238 0 0
        CHANNELS 3 Zrotation Xrotation Yrotation
        JOINT RightToeBase
        {
          OFFSET 12.7242 0 0
          CHANNELS 3 Zrotation Xrotation Yrotation
          End Site
          {
            OFFSET 0 0 0
          }
        }
      }
    }
  }
  JOINT Spine
  {
    OFFSET 0.165834 0.87714 6.61349
    CHANNELS 3 Zrotation Xrotation Yrotation
    JOINT Spine1
    {
      OFFSET 7.38963 1.71661e-005 0
      CHANNELS 3 Zrotation Xrotation Yrotation
      JOINT Spine2
      {
        OFFSET 11.9445 1.14441e-005 0
        CHANNELS 3 Zrotation Xrotation Yrotation
        JOINT Spine3
        {
          OFFSET 14.7254 4.19617e-005 0
          CHANNELS 3 Zrotation Xrotation Yrotation
          JOINT Spine4
          {
            OFFSET 10.9679 0 0
            CHANNELS 3 Zrotation Xrotation Yrotation
            JOINT RightShoulder
            {
              OFFSET 2.46616 -1.6653 3.69651
              CHANNELS 3 Zrotation Xrotation Yrotation
              JOINT RightArm
              {
                OFFSET 13.0012 0 0
                CHANNELS 3 Zrotation Xrotation Yrotation
                JOINT RightForeArm
                {
                  OFFSET 28.7848 1.52588e-005 0
                  CHANNELS 3 Zrotation Xrotation Yrotation
                  JOINT RightHand
                  {
                    OFFSET 26.5688 1.52588e-005 0
                    CHANNELS 3 Zrotation Xrotation Yrotation
                    End Site
                    {
                      OFFSET 0 0 0
                    }
                  }
                }
              }
            }
            JOINT LeftShoulder
            {
              OFFSET 2.38034 -1.29275 -3.7523
              CHANNELS 3 Zrotation Xrotation Yrotation
              JOINT LeftArm
              {
                OFFSET 16.3182 6.10351e-005 0
                CHANNELS 3 Zrotation Xrotation Yrotation
                JOINT LeftForeArm
                {
                  OFFSET 27.0901 0 0
                  CHANNELS 3 Zrotation Xrotation Yrotation
                  JOINT LeftHand
                  {
                    OFFSET 24.5451 1.52588e-005 0
                    CHANNELS 3 Zrotation Xrotation Yrotation
                    End Site
                    {
                      OFFSET 0 0 0
                    }
                  }
                }
              }
            }
            JOINT Neck
            {
              OFFSET 5.0226 -0.0266342 0
              CHANNELS 3 Zrotation Xrotation Yrotation
              JOINT Head
              {
                OFFSET 6.69363 2.86102e-005 0
                CHANNELS 3 Zrotation Xrotation Yrotation
                End Site
                {
                  OFFSET 0 0 0
                }
              }
            }
          }
        }
      }
    }
  }
}
MOTION
Frames:	10
Frame Time:	0.0416667
-2.50296 11.3039 -57.1167 174.116 -0.262527 174.316 -173.892 5.11399 89.7787 -10.1076 -14.5922 -0.776296 46.109 -11.1136 -16.8887 13.0873 1.5889 3.01002 174.392 3.1888 84.7914 -6.8352 13.592 -0.868155 48.1024 14.3146 26.783 8.15115 4.71803 2.5888 -0.615003 7.39422 -90.7485 12.075 -1.57613 -1.32037 0.404431 -1.63272 -1.24972 -22.1297 -1.10651 -1.73296 -2.11698 -1.10651 -1.73297 102.731 20.4362 -73.8037 90.3393 -22.2415 -5.13349 2.18926 -54.4934 -1.41146 -4.562 -0.468767 7.67665 -74.8141 -5.1864 106.27 -83.5114 11.3713 -8.96203 4.29073 57.813 0.0122085 -6.01887 -0.219032 -0.334485 35.0982 7.39177 10.3131 -36.7073 3.32277 -3.38498 
-2.47063 11.3033 -57.1108 174.15 -0.20904 174.331 -173.826 4.95098 89.7963 -9.93034 -14.4278 -0.84807 45.3563 -11.3081 -16.773 15.0609 1.43596 2.61238 174.409 3.12156 84.7965 -6.8303 13.4336 -0.89369 48.4445 14.218 26.8005 7.89876 4.79732 1.68275 -0.617294 7.40321 -90.7502 12.0571 -1.58144 -1.32362 0.386467 -1.63815 -1.25273 -22.1476 -1.1106 -1.73765 -2.13498 -1.11059 -1.73766 102.731 20.4212 -73.8188 90.3705 -21.9633 -4.97323 1.44351 -54.5807 -2.05174 -4.18019 -0.410525 7.18741 -74.7997 -5.18766 106.315 -83.4996 11.2961 -9.00963 4.25681 59.0152 0.0126324 -7.01417 -0.250343 -0.43047 35.1182 7.48227 10.2326 -36.8012 3.37018 -3.12351 
-2.45297 11.2818 -57.1197 174.221 -0.234424 174.284 -173.827 4.89991 89.7459 -9.83363 -14.5835 -0.880408 45.4564 -11.2503 -16.7512 14.6571 1.47251 2.61796 174.371 3.18679 84.7336 -6.85607 13.2559 -0.863111 48.5032 14.1532 26.6597 7.71086 4.83292 1.83957 -0.628804 7.40155 -90.7389 12.0605 -1.59897 -1.29898 0.389928 -1.65459 -1.22735 -22.1445 -1.13472 -1.71943 -2.13188 -1.13472 -1.71943 102.735 20.3338 -73.8484 90.3318 -22.0371 -5.10856 1.62687 -54.9195 -1.8879 -4.12737 -0.414712 7.5093 -74.7782 -5.0932 106.405 -83.5379 11.5369 -8.88746 4.08964 58.3785 0.0124036 -6.80018 -0.237653 -0.563472 35.3828 7.85449 9.7144 -37.5904 3.79742 -2.58935 
-2.45554 11.3 -57.1153 174.2 -0.168708 174.269 -173.865 4.89199 89.7293 -9.96529 -14.6602 -0.837647 45.3788 -11.358 -16.8621 14.7886 1.45182 2.76541 174.217 3.12572 84.6425 -6.91094 13.1564 -0.705183 48.6313 14.1153 26.7135 7.83084 4.81486 1.59651 -0.630628 7.4106 -90.7386 12.0424 -1.60237 -1.29827 0.371845 -1.65796 -1.22649 -22.1626 -1.13818 -1.71978 -2.14998 -1.13817 -1.71977 102.736 20.3419 -73.8271 90.3012 -22.1848 -5.09969 1.59321 -54.7294 -1.94622 -4.08104 -0.403104 7.29286 -74.7728 -5.10808 106.418 -83.5633 11.4948 -8.89641 4.09396 59.6889 0.0128856 -6.36958 -0.229917 -0.374146 35.6249 8.10144 9.40631 -38.2756 4.0415 -2.16817 
-2.44644 11.3195 -57.109 174.329 -0.381832 174.1 -173.945 4.79383 89.5513 -9.41653 -14.7331 -0.90813 45.0156 -11.3458 -16.8613 15.1866 1.39911 3.0671 174.297 3.3717 84.5466 -6.89033 13.0166 -0.834032 48.3823 14.1662 26.5988 8.50982 4.67327 1.39935 -0.606776 7.38414 -90.7211 12.0958 -1.54692 -1.26847 0.425294 -1.60124 -1.19917 -22.1091 -1.09423 -1.67469 -2.09646 -1.09423 -1.67469 102.728 20.41 -73.8642 90.4228 -21.8612 -4.85232 1.07686 -54.8399 -2.50733 -4.06409 -0.413271 7.68552 -74.8055 -5.12631 106.312 -83.515 11.5355 -8.90764 4.03784 59.1791 0.0126929 -7.21267 -0.24425 -0.734064 35.513 8.0502 9.43347 -38.1462 3.95478 -2.05965 
-2.48024 11.2873 -57.1231 174.276 -0.218109 174.262 -173.849 4.9206 89.7402 -9.90545 -14.8991 -0.853215 45.2754 -11.3735 -17.0015 14.6446 1.46722 2.72421 174.339 3.18307 84.6971 -6.86546 13.263 -0.843875 48.4688 14.2059 26.8416 7.5748 4.86724 1.69526 -0.614492 7.40482 -90.7392 12.054 -1.57062 -1.3027 0.38349 -1.62642 -1.23231 -22.1507 -1.10656 -1.71444 -2.13809 -1.10655 -1.71445 102.732 20.3851 -73.8381 90.4177 -21.7951 -4.9826 1.28755 -54.9703 -2.16217 -4.16094 -0.413773 7.35388 -74.7856 -5.15856 106.366 -83.5027 11.5459 -8.98083 4.15448 58.0514 0.0122898 -6.40105 -0.229427 -0.423647 35.5424 8.112 9.44759 -38.2194 4.02661 -2.12667 
-2.45375 11.2784 -57.1139 174.236 -0.243228 174.278 -173.855 4.94238 89.7411 -9.87704 -14.5733 -0.851169 45.4623 -11.2653 -16.8268 14.6534 1.47364 2.60569 174.364 3.20798 84.7191 -6.86218 13.2627 -0.860165 48.363 14.216 26.7586 7.89923 4.78872 1.97612 -0.619165 7.39943 -90.7388 12.0648 -1.5798 -1.3008 0.39425 -1.63552 -1.23003 -22.14 -1.11588 -1.71541 -2.12739 -1.11588 -1.71541 102.729 20.3903 -73.8785 90.372 -22.0316 -5.02301 1.58596 -54.7385 -1.96789 -4.16818 -0.420882 7.55563 -74.7939 -5.09215 106.356 -83.508 11.6491 -8.92361 4.00832 58.5941 0.0124799 -6.85313 -0.235142 -0.677547 35.5372 8.10208 9.41167 -38.286 4.03756 -2.13211 
-2.45165 11.2867 -57.1126 174.295 -0.291246 174.18 -173.922 4.87491 89.6346 -9.72114 -14.9368 -0.848631 45.2754 -11.3183 -16.9032 14.6946 1.48182 2.39601 174.309 3.2722 84.6097 -6.87831 13.1022 -0.837088 48.4905 14.1851 26.7981 8.02795 4.78323 1.20611 -0.607753 7.39643 -90.7298 12.0712 -1.5529 -1.28564 0.400567 -1.60798 -1.21605 -22.1337 -1.09478 -1.69286 -2.12105 -1.09478 -1.69286 102.731 20.4008 -73.8437 90.3676 -22.1079 -4.96384 1.44483 -54.7579 -2.15238 -4.00124 -0.404645 7.63601 -74.7964 -5.14543 106.335 -83.5253 11.5558 -8.92923 4.05597 59.5355 0.0128269 -6.61604 -0.237534 -0.400338 35.5231 8.02419 9.46317 -38.1725 3.94843 -2.16595 
-2.46729 11.3179 -57.1306 174.147 -0.188578 174.303 -173.865 4.89122 89.767 -9.87395 -14.501 -0.823009 45.0663 -11.4631 -17.0173 15.2729 1.38404 3.20532 174.304 3.09701 84.7192 -6.85136 13.3665 -0.78931 48.5194 14.212 26.8532 7.68059 4.85821 1.25572 -0.620221 7.41035 -90.7465 12.0429 -1.58542 -1.31594 0.37227 -1.6418 -1.24491 -22.1619 -1.1167 -1.73153 -2.14924 -1.11669 -1.73153 102.736 20.3851 -73.7852 90.3781 -21.8589 -5.0829 1.51888 -54.7063 -1.8192 -3.86988 -0.367928 6.86418 -74.784 -5.16407 106.37 -83.5046 11.5864 -9.00033 4.13431 58.7169 0.012524 -5.87633 -0.218333 -0.193168 35.6091 8.033 9.48062 -38.3089 3.956 -2.20845 
-2.46726 11.3088 -57.1315 174.187 -0.214644 174.292 -173.877 4.86869 89.7508 -9.76815 -14.5628 -0.811434 45.1752 -11.3772 -17.0573 14.991 1.41333 3.13298 174.295 3.14109 84.7055 -6.87452 13.4837 -0.797657 48.4932 14.2053 26.8572 7.85735 4.81483 1.41009 -0.624698 7.40492 -90.7424 12.0537 -1.59245 -1.30671 0.383186 -1.64841 -1.23537 -22.1512 -1.12618 -1.72484 -2.13851 -1.12617 -1.72484 102.731 20.3869 -73.8505 90.3279 -22.0926 -5.10181 1.79645 -54.3929 -1.7112 -4.5575 -0.452135 7.22326 -74.7755 -5.15669 106.398 -83.4871 11.7785 -9.00265 3.96247 58.7661 0.0125417 -6.76109 -0.235164 -0.597995 35.5739 8.05234 9.4212 -38.2217 3.97316 -2.10912 
